<svg width="57" height="58" viewBox="0 0 57 58" fill="none" xmlns="http://www.w3.org/2000/svg">
<g clip-path="url(#clip0)">
<path d="M57.0246 29.0128C57.0246 34.6361 55.4456 40.1523 52.393 44.8651C51.7614 45.8826 51.0772 46.7931 50.2877 47.7035C48.4982 49.8457 46.4456 51.6666 44.1824 53.2197C43.5509 53.6481 42.9193 54.023 42.2877 54.3979C38.8667 56.3259 35.0772 57.5041 31.2351 57.879C30.3403 57.9861 29.4456 57.9861 28.5509 57.9861C26.0772 57.9861 23.6035 57.6647 21.1824 57.0221C19.814 56.6472 18.4982 56.1652 17.1824 55.6296C16.4982 55.3619 15.8667 55.0405 15.2351 54.6657C13.7088 53.8623 12.2877 52.8983 10.9193 51.8272C10.2877 51.3452 9.70876 50.8097 9.12981 50.2742C-2.3965 39.4025 -3.08071 21.0332 7.6035 9.30462C18.2877 -2.42391 36.3403 -3.17368 47.8667 7.75153C53.7088 13.2141 57.0246 20.926 57.0246 29.0128Z" fill="#E4E8EF"/>
<path d="M21.6031 31.6371C21.6031 31.6371 24.1821 38.9742 22.1821 43.0979C20.1821 47.2216 25.34 51.8809 25.34 51.8809C25.34 51.8809 38.9189 44.8652 37.1821 41.3306C35.4453 37.796 32.5505 33.1367 33.1295 30.1912L21.6031 31.6371Z" fill="#FFC49A"/>
<path d="M26.6558 34.422C31.7427 34.422 35.8664 30.2259 35.8664 25.0498C35.8664 19.8738 31.7427 15.6777 26.6558 15.6777C21.569 15.6777 17.4453 19.8738 17.4453 25.0498C17.4453 30.2259 21.569 34.422 26.6558 34.422Z" fill="#FFC49A"/>
<path d="M21.1295 57.022C19.7611 56.6471 18.4453 56.1651 17.1295 55.6296L17.3927 48.5068L19.9716 42.6157C20.5506 43.0977 21.1821 43.4726 21.8137 43.8475C21.9716 43.9546 22.1295 44.0082 22.2874 44.1153C24.7085 45.2935 28.7085 46.3646 32.5506 43.4191C33.9716 42.2944 35.1821 40.902 36.0769 39.3489L43.3927 43.5262L43.7611 48.0248L44.1821 53.2732C43.5506 53.7016 42.919 54.0765 42.2874 54.4514C38.8664 56.3793 35.0769 57.5576 31.2348 57.9324C30.34 58.0395 29.4453 58.0395 28.5506 58.0395C26.0243 58.0395 23.5506 57.6647 21.1295 57.022Z" fill="#84DE91"/>
<path d="M22.919 38.2244L22.5505 42.0803L22.34 44.1154L22.0769 47.1145L21.1295 57.0221C19.7611 56.6473 18.4453 56.1653 17.1295 55.6297C16.4453 55.3619 15.8137 55.0406 15.1821 54.6657C13.6558 53.8624 12.2348 52.8984 10.8663 51.8273L9.86633 47.0074L9.91896 46.9538L22.919 38.2244Z" fill="#84DE91"/>
<path d="M42.2875 54.3978C38.8664 56.3258 35.077 57.504 31.2349 57.8788C31.4454 54.2907 31.7612 50.8631 32.077 47.8105C32.2349 46.2574 32.4454 44.7579 32.6559 43.419C33.2875 39.1346 33.9717 36.1891 34.4454 35.8142L37.6559 37.9564L50.6033 42.6157L50.3401 47.7034C48.5507 49.8456 46.498 51.6665 44.2349 53.2196C43.5507 53.648 42.9191 54.0764 42.2875 54.3978Z" fill="#84DE91"/>
<path d="M10.9191 51.8807C10.2875 51.3987 9.70859 50.8631 9.12964 50.3276L9.60332 47.0607L9.97174 47.0072L11.6033 46.793L15.1823 54.7191C13.7086 53.8622 12.2875 52.9518 10.9191 51.8807Z" fill="#84DE91"/>
<path d="M52.3926 44.8652C51.761 45.8827 51.0768 46.7932 50.2874 47.7036C48.4979 49.8458 46.4452 51.6667 44.1821 53.2197C43.5505 53.6482 42.9189 54.0231 42.2873 54.398L41.9716 52.8984L43.8137 48.0249L46.0242 42.0803L50.6558 42.6694C51.2347 43.3656 51.8137 44.1154 52.3926 44.8652Z" fill="#84DE91"/>
<path d="M35.4452 16.5345C34.0242 14.2316 31.8663 12.5179 29.34 11.7681L27.4452 13.3212L28.1821 11.5539C27.5505 11.4468 26.9715 11.4468 26.34 11.4468L24.6557 13.6425L25.34 11.5003C22.3926 11.8752 19.7084 13.4819 17.9715 15.9454C15.8136 19.1051 15.4452 23.4966 17.5505 26.6564C18.1294 24.8355 18.8136 23.1218 19.3926 21.3544C19.8663 21.408 20.2873 21.408 20.761 21.3544L21.4452 19.6942L21.6557 21.3009C23.8663 21.0867 27.0768 20.6582 29.1821 20.2833L28.9715 19.0516L30.1821 20.0691C30.8136 19.9085 31.1821 19.8013 31.1821 19.6942C32.7084 22.2113 34.2347 23.818 35.8136 26.3886C36.3926 22.7469 37.3926 19.8013 35.4452 16.5345Z" fill="#2F2E41"/>
<path d="M34.9189 26.0138C35.2677 26.0138 35.5505 25.4383 35.5505 24.7284C35.5505 24.0186 35.2677 23.4431 34.9189 23.4431C34.5701 23.4431 34.2874 24.0186 34.2874 24.7284C34.2874 25.4383 34.5701 26.0138 34.9189 26.0138Z" fill="#FFC49A"/>
</g>
<defs>
<clipPath id="clip0">
<rect width="57" height="58" fill="white"/>
</clipPath>
</defs>
</svg>
